<svg width="64" height="65" viewBox="0 0 64 65" fill="none" xmlns="http://www.w3.org/2000/svg">
<path d="M63 32.5C63 49.9116 49.1063 64 32 64C14.8937 64 1 49.9116 1 32.5C1 15.0884 14.8937 1 32 1C49.1063 1 63 15.0884 63 32.5Z" fill="white" stroke="black" stroke-width="2"/>
<path d="M43.546 22.75C43.546 22.8935 43.5219 23.036 43.4744 23.1719L40.216 42.1169C40.0652 42.9928 39.5986 43.7885 38.8991 44.3622C38.1997 44.936 37.3128 45.2506 36.3964 45.25H27.4744C26.5583 45.2501 25.6719 44.9353 24.9728 44.3616C24.2738 43.7879 23.8074 42.9925 23.6567 42.1169L20.3983 23.1719C20.3509 23.036 20.3267 22.8935 20.3267 22.75C20.3267 20.6781 25.5239 19 31.9363 19C38.3488 19 43.546 20.6781 43.546 22.75ZM22.6776 25.0131L25.5665 41.8075C25.6416 42.2453 25.8746 42.6431 26.2239 42.9301C26.5733 43.2172 27.0163 43.3748 27.4744 43.375H36.3983C36.8563 43.3748 37.2994 43.2172 37.6488 42.9301C37.9981 42.6431 38.2311 42.2453 38.3062 41.8075L41.1951 25.0131C39.0763 25.9169 35.7172 26.5 31.9363 26.5C28.1555 26.5 24.7964 25.9169 22.6776 25.0131Z" fill="black"/>
</svg>
