<svg width="64" height="65" viewBox="0 0 64 65" fill="none" xmlns="http://www.w3.org/2000/svg">
<path d="M63 32.5C63 49.9116 49.1063 64 32 64C14.8937 64 1 49.9116 1 32.5C1 15.0884 14.8937 1 32 1C49.1063 1 63 15.0884 63 32.5Z" fill="white" stroke="black" stroke-width="2"/>
<path d="M41.2171 15.2938C41.3156 15.2007 41.4327 15.1268 41.5616 15.0764C41.6906 15.0259 41.8287 15 41.9683 15C42.1079 15 42.2461 15.0259 42.375 15.0764C42.5039 15.1268 42.621 15.2007 42.7195 15.2938L49.0859 21.2935C49.1847 21.3864 49.2631 21.4967 49.3166 21.6182C49.3701 21.7397 49.3976 21.87 49.3976 22.0015C49.3976 22.133 49.3701 22.2632 49.3166 22.3847C49.2631 22.5062 49.1847 22.6166 49.0859 22.7095L27.8648 42.7086C27.763 42.8039 27.6417 42.8787 27.5083 42.9286L16.8977 46.9284C16.7049 47.0011 16.4937 47.0189 16.2902 46.9796C16.0868 46.9403 15.9 46.8455 15.7532 46.7071C15.6063 46.5687 15.5058 46.3927 15.464 46.201C15.4223 46.0092 15.4412 45.8102 15.5184 45.6284L19.7626 35.6289C19.8155 35.5032 19.8949 35.3889 19.996 35.2929L41.2171 15.2938ZM39.2244 20.0016L44.0904 24.5874L46.8343 22.0015L41.9683 17.4157L39.2244 20.0016ZM42.5901 26.0013L37.7241 21.4155L23.9304 34.4149V35.0009H24.9915C25.2729 35.0009 25.5427 35.1063 25.7417 35.2938C25.9407 35.4813 26.0525 35.7357 26.0525 36.0009V37.0008H27.1136C27.395 37.0008 27.6649 37.1062 27.8638 37.2937C28.0628 37.4812 28.1746 37.7356 28.1746 38.0008V39.0007H28.7964L42.5901 26.0013ZM21.8762 36.3509L21.6513 36.5628L18.4087 44.2045L26.5172 41.1486L26.7422 40.9367C26.5398 40.8654 26.3653 40.7376 26.242 40.5703C26.1188 40.4031 26.0527 40.2043 26.0525 40.0007V39.0007H24.9915C24.71 39.0007 24.4402 38.8954 24.2412 38.7079C24.0422 38.5203 23.9304 38.266 23.9304 38.0008V37.0008H22.8693C22.6533 37.0007 22.4424 36.9384 22.2649 36.8222C22.0874 36.7061 21.9518 36.5416 21.8762 36.3509Z" fill="black"/>
</svg>
